PathFileType	4	(X/Y/Z)	D:\TRACE\spotREDO_2-26-24\spot_justArm_Motion_2_5-v60.trc
DataRate	CameraRate	NumFrames	NumMarkers	Units	OrigDataRate	OrigDataStartFrame	OrigNumFrames
100.00	100.00	      17	9	mm	100.00	3501	      7000
Frame#	Time	front left toe			Front right toe			aft left toe			aft right toe			Arm			FL body			FR body			AL Body			AR Body			
		X1	Y1	Z1	X2	Y2	Z2	X3	Y3	Z3	X4	Y4	Z4	X5	Y5	Z5	X6	Y6	Z6	X7	Y7	Z7	X8	Y8	Z8	X9	Y9	Z9	

3501	35.000	-294.88150	3.72250	-137.46193	129.48949	6.88636	-144.41933	-330.14218	59.13750	454.38538	96.58170	61.81937	429.23300	-110.35773	599.77740	-821.95428	-171.11563	529.54340	-214.77672	-15.53801	534.35455	-208.54111	-216.83580	609.87543	663.76355	-68.74650	611.00385	672.42670	
3502	35.010	-293.91617	3.78479	-136.76593	130.66975	7.06295	-144.22995	-329.51480	58.81284	454.54437	97.39920	61.70078	429.29330	-109.70940	597.32831	-821.85870	-170.85481	528.14783	-215.11137	-14.94623	533.28198	-208.88145	-215.88272	611.20776	663.72546	-68.27379	612.41101	672.03418	
3503	35.020	-292.81036	3.54351	-136.74739	131.42703	7.18984	-144.23091	-328.33829	58.37051	454.55280	98.60378	61.46411	429.38736	-109.34704	595.72504	-821.84833	-170.26669	526.79364	-215.18166	-14.35944	531.60126	-208.56984	-215.63362	612.34808	663.30139	-68.00040	613.82074	671.64410	
3504	35.030	-291.82269	3.80950	-136.66119	132.12363	7.45708	-144.08620	-327.64368	58.11975	454.61972	99.49142	61.14013	429.30637	-108.98878	595.05731	-821.90802	-169.72215	525.46100	-215.17882	-13.92932	530.84857	-209.03862	-215.22072	613.21185	663.10620	-67.33552	614.58594	671.55872	
3505	35.040	-291.28452	4.16155	-136.63591	133.13124	7.72430	-143.73665	-326.50751	57.68448	454.81265	100.91600	61.15187	429.41681	-108.83800	595.05267	-822.04938	-169.15370	524.34436	-215.09439	-13.51449	529.55713	-208.80591	-214.90988	613.98169	662.78418	-66.26260	615.56696	671.46503	
3506	35.050	-290.22263	4.18643	-136.48979	134.12617	7.77361	-143.66095	-325.70612	57.28073	454.91272	101.42377	60.59624	429.47546	-108.29935	595.54968	-822.12146	-168.49934	523.63300	-215.12372	-12.97226	528.90613	-208.86295	-214.21216	614.32764	662.61670	-66.28294	615.80847	671.01508	
3507	35.060	-289.05826	4.27510	-136.24052	134.87852	7.97299	-143.55249	-324.74411	56.91151	454.90222	101.97553	60.06548	429.45410	-108.00648	596.79541	-822.06152	-167.81584	523.09631	-215.05367	-12.22917	528.34222	-209.08012	-213.49413	614.45349	662.51508	-65.61881	616.08826	671.16528	
3508	35.070	-288.34116	4.56837	-136.29341	135.98398	8.31774	-143.23720	-323.85416	56.44754	455.07938	103.52469	60.06943	429.72800	-107.37735	598.34558	-822.20068	-167.15373	522.76086	-215.20412	-11.52290	528.00665	-209.14861	-212.98163	614.45074	662.30133	-65.15194	616.18542	671.12207	
3509	35.080	-287.47345	4.99938	-136.13474	137.37852	8.49463	-143.06261	-322.73282	56.00555	455.31415	104.08595	59.24283	429.89426	-107.15484	600.23444	-822.25928	-166.47688	522.52698	-215.28746	-10.69420	527.73853	-208.82547	-212.63425	614.23657	662.29456	-64.47477	615.96613	671.26154	
3510	35.090	-286.01706	5.22293	-135.96684	138.05190	8.78179	-143.04654	-321.78076	55.35123	455.49072	104.99971	58.84470	430.11633	-105.53521	602.48163	-821.02539	-165.77586	522.55603	-215.11792	-10.19716	527.81207	-208.85191	-212.03113	613.85785	662.47943	-63.87391	615.71478	671.07977	
3511	35.100	-285.09119	5.01354	-135.57678	138.80794	8.97891	-142.72243	-320.88840	54.78453	455.52237	106.33898	58.57859	430.18375	-106.54346	604.59589	-822.48523	-165.12218	522.52454	-215.04449	-9.52948	527.89355	-208.74852	-211.09883	613.38855	662.67877	-63.25130	615.17944	671.09064	
3512	35.110	-284.20029	5.25613	-135.40967	140.43230	9.80117	-142.18784	-319.93475	54.27678	455.66187	107.17875	57.96556	430.40186	-106.26842	606.75189	-822.80664	-164.38965	522.66418	-214.92952	-8.45592	528.24774	-208.78725	-210.43481	613.11237	662.88977	-62.60638	614.70605	671.25824	
3513	35.120	-283.23337	5.39923	-135.29289	141.48752	10.06514	-142.12526	-318.84055	53.51662	455.99402	108.50446	57.77205	430.64270	-105.95466	609.04272	-822.95013	-163.70337	523.24768	-214.96716	-7.73048	528.38177	-208.78488	-209.74814	612.69812	663.00653	-62.08844	614.24384	671.38879	
3514	35.130	-282.08630	5.75220	-135.00211	141.80716	10.04438	-142.36543	-317.79306	52.99508	456.17056	109.31105	56.77846	430.87524	-105.54865	611.12494	-823.04541	-162.71066	523.43811	-214.85428	-7.02456	528.54883	-208.47058	-208.58795	612.18964	663.36115	-61.13051	613.71979	671.52002	
3515	35.140	-281.22290	5.91207	-134.75923	143.41435	10.46250	-142.09344	-316.65924	52.29826	456.30457	110.21715	56.47449	431.03784	-105.07005	613.03693	-823.05170	-162.01053	523.71002	-214.54349	-6.28340	529.02716	-208.58571	-208.08559	611.93268	663.49335	-59.86931	613.29779	672.20923	
3516	35.150	-280.27182	6.38513	-134.70030	144.26794	10.59375	-141.99361	-315.95709	51.82432	456.50809	111.41297	55.88041	431.29108	-104.56577	614.75494	-823.14917	-161.10950	524.26141	-214.39819	-5.57970	529.26123	-208.39963	-207.20386	611.48004	663.76947	-59.43176	612.92078	672.09192	
3517	35.160	-279.54086	6.79567	-134.70677	145.16028	10.63595	-141.90788	-314.55405	51.00782	456.95554	112.32834	55.38515	431.50146	-103.98513	616.37390	-823.04224	-160.19809	524.55286	-214.12677	-4.53361	529.66156	-208.13969	-206.05925	611.04968	664.04224	-58.39120	612.38916	672.36096	
